<?xml version="1.0" standalone="no"?>
<!DOCTYPE svg PUBLIC "-//W3C//DTD SVG 20010904//EN"
 "http://www.w3.org/TR/2001/REC-SVG-20010904/DTD/svg10.dtd">
<svg version="1.0" xmlns="http://www.w3.org/2000/svg"
 width="512.000000pt" height="512.000000pt" viewBox="0 0 512.000000 512.000000"
 preserveAspectRatio="xMidYMid meet">

<g transform="translate(0.000000,512.000000) scale(0.100000,-0.100000)"
fill="#000000" stroke="none">
<path d="M1090 4835 l0 -234 -463 -3 -464 -3 -37 -29 c-21 -16 -47 -48 -57
-72 -19 -41 -19 -102 -17 -2186 l3 -2143 22 -35 c12 -19 37 -44 55 -55 33 -20
53 -20 2403 -23 1625 -2 2381 0 2406 8 51 14 88 47 110 94 18 40 19 119 19
2169 0 1901 -2 2132 -16 2165 -21 51 -61 90 -103 102 -21 6 -206 10 -443 10
l-408 0 -2 233 -3 232 -157 3 -158 3 0 -236 0 -235 -1185 0 -1185 0 0 235 0
235 -160 0 -160 0 0 -235z m0 -835 l0 -270 160 0 160 0 0 270 0 270 1183 -2
1182 -3 3 -268 2 -268 158 3 157 3 3 268 2 267 323 -2 322 -3 3 -457 2 -458
-2190 0 -2190 0 0 453 c0 250 3 457 7 460 3 4 165 7 360 7 l353 0 0 -270z
m3658 -2297 l-3 -1318 -2185 0 -2185 0 -3 1318 -2 1317 2190 0 2190 0 -2
-1317z"/>
<path d="M780 2435 l0 -165 160 0 160 0 0 165 0 165 -160 0 -160 0 0 -165z"/>
<path d="M1590 2435 l0 -165 160 0 160 0 0 165 0 165 -160 0 -160 0 0 -165z"/>
<path d="M2400 2435 l0 -165 160 0 160 0 0 165 0 165 -160 0 -160 0 0 -165z"/>
<path d="M3210 2435 l0 -165 160 0 160 0 0 165 0 165 -160 0 -160 0 0 -165z"/>
<path d="M4020 2435 l0 -165 160 0 160 0 0 165 0 165 -160 0 -160 0 0 -165z"/>
<path d="M780 1680 l0 -171 158 3 157 3 0 165 0 165 -157 3 -158 3 0 -171z"/>
<path d="M1590 1680 l0 -171 158 3 157 3 3 168 2 167 -160 0 -160 0 0 -170z"/>
<path d="M2400 1680 l0 -170 160 0 160 0 0 170 0 170 -160 0 -160 0 0 -170z"/>
<path d="M3217 1843 c-4 -3 -7 -80 -7 -170 l0 -163 160 0 160 0 0 170 0 170
-153 0 c-85 0 -157 -3 -160 -7z"/>
<path d="M4024 1837 c-2 -7 -3 -82 -2 -167 l3 -155 158 -3 157 -3 0 171 0 170
-155 0 c-118 0 -157 -3 -161 -13z"/>
<path d="M780 915 l0 -165 160 0 160 0 0 165 0 165 -160 0 -160 0 0 -165z"/>
<path d="M1590 915 l0 -165 160 0 160 0 0 165 0 165 -160 0 -160 0 0 -165z"/>
<path d="M2400 915 l0 -165 160 0 160 0 0 165 0 165 -160 0 -160 0 0 -165z"/>
<path d="M3210 915 l0 -165 160 0 160 0 0 165 0 165 -160 0 -160 0 0 -165z"/>
<path d="M4020 915 l0 -165 160 0 160 0 0 165 0 165 -160 0 -160 0 0 -165z"/>
</g>
</svg>
