<?xml version="1.0" standalone="no"?>
<!DOCTYPE svg PUBLIC "-//W3C//DTD SVG 20010904//EN"
 "http://www.w3.org/TR/2001/REC-SVG-20010904/DTD/svg10.dtd">
<svg version="1.0" xmlns="http://www.w3.org/2000/svg"
 width="1920.000000pt" height="1740.000000pt" viewBox="0 0 1920.000000 1740.000000"
 preserveAspectRatio="xMidYMid meet">

<g transform="translate(0.000000,1740.000000) scale(0.100000,-0.100000)"
fill="#000000" stroke="none">
<path d="M7255 17394 c-16 -2 -84 -9 -150 -15 -1014 -93 -1996 -628 -2646
-1439 -472 -590 -756 -1282 -841 -2045 -17 -158 -17 -632 0 -790 42 -379 142
-771 282 -1104 530 -1265 1689 -2166 3039 -2361 508 -73 1029 -45 1526 82
1487 379 2621 1608 2879 3118 41 243 51 369 51 660 0 290 -10 417 -50 656
-261 1530 -1416 2767 -2924 3134 -308 74 -519 100 -866 105 -148 2 -283 2
-300 -1z m635 -618 c420 -51 826 -181 1185 -378 1326 -729 1990 -2242 1623
-3703 -291 -1161 -1207 -2086 -2361 -2385 -305 -79 -510 -105 -837 -105 -248
0 -361 9 -570 46 -537 94 -1046 323 -1473 662 -286 227 -503 463 -701 762
-300 450 -471 920 -538 1475 -16 136 -16 553 0 695 53 462 184 871 404 1265
520 930 1491 1571 2528 1669 63 6 131 13 150 15 74 9 471 -3 590 -18z"/>
<path d="M4979 9698 c-46 -72 -181 -211 -254 -263 -70 -49 -178 -105 -250
-128 -40 -13 -1710 -416 -2749 -663 -103 -25 -227 -59 -275 -76 -385 -134
-694 -475 -806 -888 -28 -104 -28 -103 -406 -3070 -165 -1298 -239 -1911 -236
-1947 10 -96 73 -184 170 -235 l42 -23 4793 -3 c2635 -1 4792 1 4792 4 0 4
-31 79 -69 168 -37 89 -90 221 -116 294 l-48 132 -884 0 -883 0 0 1508 0 1509
708 648 c389 357 719 665 733 684 14 20 203 356 419 746 215 391 398 720 406
732 l14 23 78 -39 c124 -62 207 -88 559 -172 l332 -80 126 106 c119 100 273
218 413 315 34 24 59 47 55 51 -5 4 -228 59 -498 123 -269 64 -529 128 -577
141 -102 29 -208 79 -293 140 -93 67 -224 207 -281 301 -9 16 -15 14 -70 -23
-70 -48 -297 -179 -387 -224 -34 -17 -63 -33 -65 -34 -7 -6 27 -61 82 -134 47
-64 53 -77 44 -95 -11 -21 -66 -119 -571 -1032 l-266 -480 -627 -575 c-345
-315 -630 -574 -634 -574 -4 0 -289 258 -634 574 l-626 574 -109 196 c-82 148
-719 1300 -737 1332 -2 3 22 39 52 80 54 72 89 128 82 133 -2 2 -48 27 -103
56 -128 68 -274 153 -347 202 -31 21 -59 38 -61 38 -2 0 -19 -24 -38 -52z
m143 -1208 c496 -898 613 -1108 637 -1141 14 -19 344 -327 734 -684 l707 -648
0 -1509 0 -1508 -3280 0 -3281 0 6 33 c3 17 18 138 35 267 16 129 59 465 94
745 36 281 149 1165 251 1965 102 800 192 1482 201 1514 50 190 190 363 359
447 72 35 228 75 1555 393 811 195 1511 367 1555 384 44 16 112 45 150 65 53
27 73 33 81 24 6 -7 95 -163 196 -347z"/>
<path d="M14215 9289 c-1264 -94 -2432 -696 -3243 -1672 -1306 -1572 -1431
-3814 -306 -5521 413 -626 965 -1139 1626 -1510 1112 -624 2469 -757 3690
-360 1007 327 1875 992 2462 1886 828 1261 986 2859 424 4263 -625 1559 -2051
2668 -3710 2885 -302 39 -660 50 -943 29z m780 -614 c1078 -123 2045 -659
2724 -1510 905 -1133 1130 -2672 589 -4020 -520 -1291 -1675 -2234 -3038
-2479 -266 -48 -412 -60 -720 -60 -307 0 -464 13 -720 60 -1076 197 -2024 817
-2636 1724 -370 549 -591 1151 -670 1825 -25 207 -25 660 0 870 102 880 455
1653 1054 2311 254 279 644 590 977 776 545 307 1120 477 1765 522 116 8 541
-4 675 -19z"/>
<path d="M16709 6587 c-20 -8 -53 -24 -73 -36 -20 -12 -731 -721 -1581 -1574
l-1545 -1552 -677 676 c-747 746 -704 709 -833 709 -114 0 -214 -62 -268 -164
-21 -42 -26 -65 -27 -126 0 -146 -55 -83 829 -968 585 -587 804 -800 841 -820
42 -22 63 -27 130 -27 149 0 -1 -139 1862 1731 1141 1146 1677 1691 1697 1725
79 138 22 324 -125 403 -63 35 -170 45 -230 23z"/>
</g>
</svg>
